 http://www.imdb.com/title/tt1440129/

Source: Battleship.2012.PROPER.720p.BluRay.x264-SPARKS Thanks!

Subs: Arabic, Brazilian, Bulgarian, Danish, Dutch, English, Farsi-Persian, Finnish, Greek, Polish, Romanian and Turkish.

Sample and Screens included.

General
Complete name                    : Battleship-720p MP4 AAC x264 BRRip 2012-CC.mp4
Format                           : MPEG-4
Format profile                   : Base Media
Codec ID                         : isom
File size                        : 2.89 GiB
Duration                         : 2h 11mn
Overall bit rate                 : 3 154 Kbps
Encoded date                     : UTC 2012-08-03 15:09:47

Video
ID                               : 1
Format                           : AVC
Format/Info                      : Advanced Video Codec
Format profile                   : High@L3.1
Format settings, CABAC           : Yes
Format settings, ReFrames        : 5 frames
Codec ID                         : avc1
Codec ID/Info                    : Advanced Video Coding
Duration                         : 2h 11mn
Bit rate mode                    : Variable
Bit rate                         : 2 765 Kbps
Nominal bit rate                 : 2 786 Kbps
Maximum bit rate                 : 29.9 Mbps
Width                            : 1 280 pixels
Height                           : 528 pixels
Display aspect ratio             : 2.35:1
Frame rate mode                  : Variable
Frame rate                       : 23.976 fps
Minimum frame rate               : 15.938 fps
Maximum frame rate               : 25.000 fps
Resolution                       : 24 bits
Colorimetry                      : 4:2:0
Scan type                        : Progressive
Bits/(Pixel*Frame)               : 0.171
Stream size                      : 2.53 GiB (88%)
Writing library                  : x264 core 112

Audio
ID                               : 2
Format                           : AAC
Format/Info                      : Advanced Audio Codec
Format version                   : Version 4
Format profile                   : LC
Format settings, SBR             : No
Codec ID                         : 40
Duration                         : 2h 11mn
Bit rate mode                    : Variable
Bit rate                         : 384 Kbps
Maximum bit rate                 : 646 Kbps
Channel(s)                       : 6 channels
Channel positions                : Front: L C R, Rear: L R, LFE
Sampling rate                    : 48.0 KHz
Resolution                       : 16 bits
Stream size                      : 360 MiB (12%)
Language                         : English

Enjoy...